<svg xmlns="http://www.w3.org/2000/svg" width="37.23" height="39.746" viewBox="0 0 37.23 39.746">
  <g id="Add_todo_icon" data-name="Add todo icon" transform="translate(0 0)">
    <path id="Path_7" data-name="Path 7" d="M46.779-500.95a4.051,4.051,0,0,0-2.39,1.4c-.608.757-.71,1.12-.75,2.619l-.032,1.286h-.939c-1.057,0-1.325.087-1.531.473a.747.747,0,0,0,0,.789c.205.395.473.473,1.538.473h.947v5.049h-.947c-1.065,0-1.333.079-1.538.473a.747.747,0,0,0,0,.789c.205.395.473.473,1.538.473h.947v5.191l-1.073.032-1.073.024-.229.26a.794.794,0,0,0-.229.489.793.793,0,0,0,.229.489l.229.26,1.073.024,1.073.032v5.191h-.947c-1.065,0-1.333.079-1.538.473a.747.747,0,0,0,0,.789c.205.395.473.473,1.538.473h.947v5.049h-.947c-1.065,0-1.333.079-1.538.473a.747.747,0,0,0,0,.789c.205.395.473.473,1.538.473h.947v1.136a5.045,5.045,0,0,0,.158,1.649,3.938,3.938,0,0,0,2.3,2.351l.5.189,12.426.024c13.823.023,13.088.047,14.012-.5a3.644,3.644,0,0,0,1.7-2.091c.142-.45.15-.789.15-5.049,0-2.509-.016-4.568-.039-4.568s-.387.252-.82.552l-.789.56-.024,3.96c-.024,3.89-.024,3.968-.2,4.276a2.293,2.293,0,0,1-1.049.978c-.355.158-.466.165-10.667.165H50.961V-499.27H61.28c10.2,0,10.311.008,10.667.165a2.293,2.293,0,0,1,1.049.978l.174.316.024,8.694c.008,4.789.039,8.7.063,8.7s.395-.253.828-.56l.781-.56v-8.189c0-7.818-.008-8.213-.15-8.67a3.872,3.872,0,0,0-1.838-2.185c-.868-.442-.323-.426-13.633-.41C52.5-500.99,46.89-500.966,46.779-500.95Zm3.393,19.834v18.146l-1.712-.024c-1.7-.024-1.72-.024-2.083-.237-.844-.5-1.1-1.073-1.1-2.485v-.891h.434a1.252,1.252,0,0,1,.8.237A1.342,1.342,0,0,0,48.3-466.6a1.348,1.348,0,0,0-1.018-2.249,1.063,1.063,0,0,0-.781.253,1.082,1.082,0,0,1-.789.252h-.434v-5.049h.434a1.143,1.143,0,0,1,.765.221,1.209,1.209,0,0,0,.813.213.98.98,0,0,0,.773-.221,1.365,1.365,0,0,0,.181-2.075,1.345,1.345,0,0,0-1.783-.1,1.008,1.008,0,0,1-.75.229h-.434v-5.207h.434a1.05,1.05,0,0,1,.773.245,1.294,1.294,0,0,0,1.823-.166,1.307,1.307,0,0,0-.655-2.138,1.307,1.307,0,0,0-1.183.245,1.01,1.01,0,0,1-.757.237h-.434v-5.207h.434a1.082,1.082,0,0,1,.789.252,1.082,1.082,0,0,0,.789.252,1.28,1.28,0,0,0,1.333-1.333,1.3,1.3,0,0,0-.56-1.12.981.981,0,0,0-.773-.221,1.209,1.209,0,0,0-.813.213,1.143,1.143,0,0,1-.765.221H45.28V-493.9h.442a.951.951,0,0,1,.686.189,1.39,1.39,0,0,0,1.83-.079,1.37,1.37,0,0,0-.213-2.107,1.506,1.506,0,0,0-1.389-.063,1.371,1.371,0,0,0-.371.245,1.131,1.131,0,0,1-.521.079H45.28v-.891c0-1.278.2-1.83.836-2.312.489-.379.741-.418,2.461-.426h1.594v18.155Z" transform="translate(-41.02 500.995)" fill="#fff"/>
    <path id="Path_8" data-name="Path 8" d="M341.741-327.236l-.891.891-.568-.568c-.734-.726-.962-.8-1.365-.395a.846.846,0,0,0-.276.466c0,.276.331.7,1.168,1.5.67.647.742.694,1.049.694s.371-.039,1.467-1.128c1.278-1.247,1.428-1.483,1.254-1.9a.653.653,0,0,0-.694-.442C342.656-328.12,342.514-328.01,341.741-327.236Z" transform="translate(-326.569 335.131)" fill="#fff"/>
    <path id="Path_9" data-name="Path 9" d="M487.44-306.649a.874.874,0,0,0-.4,1.175c.268.513.047.5,5.893.473l5.294-.024.229-.26a.779.779,0,0,0-.039-1.168l-.268-.268-5.27.008C489.973-306.712,487.527-306.681,487.44-306.649Z" transform="translate(-468.86 314.599)" fill="#fff"/>
    <path id="Path_10" data-name="Path 10" d="M341.817-169.686l-.891.884-.592-.584c-.513-.513-.623-.584-.876-.584a.577.577,0,0,0-.513.252c-.418.466-.308.71.773,1.767.852.836,1.089.971,1.42.844a16.317,16.317,0,0,0,2.517-2.493.7.7,0,0,0-.686-.971C342.756-170.57,342.582-170.443,341.817-169.686Z" transform="translate(-326.645 183.971)" fill="#fff"/>
    <path id="Path_11" data-name="Path 11" d="M487.329-147.12a.909.909,0,0,0-.442,1.128.907.907,0,0,0,.339.379c.253.15.4.158,5.539.158h5.27l.268-.268a.691.691,0,0,0,.268-.6.69.69,0,0,0-.268-.6l-.268-.268-5.27.008C489.862-147.183,487.416-147.151,487.329-147.12Z" transform="translate(-468.75 161.54)" fill="#fff"/>
    <path id="Path_12" data-name="Path 12" d="M341.833-12.175l-.9.884-.584-.568c-.528-.513-.615-.568-.9-.568a.555.555,0,0,0-.528.253c-.363.426-.26.663.686,1.625.9.907,1.16,1.081,1.475,1A16.737,16.737,0,0,0,343.7-12.12a.741.741,0,0,0-.363-.852C342.9-13.169,342.765-13.1,341.833-12.175Z" transform="translate(-326.654 32.851)" fill="#fff"/>
    <path id="Path_13" data-name="Path 13" d="M535.637-.113c-3.945,2.8-7.251,5.144-7.329,5.207-.142.095-.126.1.118.063a.7.7,0,0,1,.813.363.88.88,0,0,0,.41.4,1.92,1.92,0,0,1,1.089,1.5,1,1,0,0,0,.205.5.809.809,0,0,1,.134.891c-.079.213-.087.308-.024.276.087-.055,13.593-9.609,14.264-10.1l.371-.268-.047-.528a2.87,2.87,0,0,0-.813-1.957l-.671-.963-.6-.245a5.257,5.257,0,0,0-.671-.245C542.848-5.21,539.589-2.914,535.637-.113Z" transform="translate(-508.458 25.318)" fill="#fff"/>
    <path id="Path_14" data-name="Path 14" d="M487.329,9a.846.846,0,0,0-.1,1.507c.253.158.371.158,4.891.142l4.639-.024.213-.221a.673.673,0,0,0,.221-.608.673.673,0,0,0-.221-.608l-.213-.221-4.639-.016C489.57,8.947,487.416,8.971,487.329,9Z" transform="translate(-468.75 11.729)" fill="#fff"/>
    <path id="Path_15" data-name="Path 15" d="M462.2,295.433c-.063.1-.442.741-.836,1.42-.655,1.12-.71,1.254-.631,1.436a.568.568,0,0,0,.2.237,13.734,13.734,0,0,0,1.664-.268c.852-.174,1.562-.316,1.57-.316a3.9,3.9,0,0,0-.323-1.089,4.625,4.625,0,0,0-1.294-1.46C462.311,295.259,462.311,295.259,462.2,295.433Z" transform="translate(-443.684 -263.001)" fill="#fff"/>
  </g>
</svg>
