<svg xmlns="http://www.w3.org/2000/svg" width="48.724" height="52.298" viewBox="0 0 48.724 52.298">
  <g id="check" transform="translate(-9.285 -226.5)">
    <path id="Path_2" data-name="Path 2" d="M358.7,226.5" transform="translate(-331.879)" fill="none"/>
    <path id="Path_3" data-name="Path 3" d="M358.7,226.5" transform="translate(-331.879)" fill="none"/>
    <path id="Path_4" data-name="Path 4" d="M9.978,763a.44.44,0,0,1,.067.067C9.987,763.076,9.968,763.057,9.978,763Z" transform="translate(0 -485.205)" fill="#e45a74"/>
    <path id="Path_5" data-name="Path 5" d="M288.5,763.067l.067-.067C288.576,763.057,288.557,763.076,288.5,763.067Z" transform="translate(-265.08 -485.205)" fill="#e45a74"/>
    <path id="Path_6" data-name="Path 6" d="M529.075,254.515c.048.411-.172.545-.468.669-8.509,3.557-14.59,9.905-19.83,17.238A80.162,80.162,0,0,0,501,286.028c-.373.822-.564.966-1.262.277q-8.232-8.16-16.521-16.254c-.794-.784-1.587-1.578-2.419-2.323-.583-.526-.65-.822.153-1.2,2.094-.975,4.188-1.96,6.215-3.05a1.469,1.469,0,0,1,2.036.354c3.423,3.423,6.884,6.8,10.335,10.192.985.975.956.956,1.425-.373a68.324,68.324,0,0,1,6.062-12.19A305.335,305.335,0,0,1,524.3,235.91c.182-.249.306-.7.669-.612s.249.545.315.841q1.879,9.064,3.729,18.118c.019.1.048.2.057.258Z" transform="translate(-471.074 -7.947)" fill="#e45a74"/>
  </g>
</svg>
